<svg width="1200" height="700" viewBox="0 0 1200 700" fill="none" xmlns="http://www.w3.org/2000/svg" role="img" aria-label="Cellulose insulation bags and attic fill"><rect width="1200" height="700" fill="#0F1624"/><rect x="80" y="80" width="1040" height="540" rx="32" fill="#141E2E" stroke="#2B384F" stroke-width="4"/><rect x="120" y="428" width="960" height="132" rx="16" fill="#334155"/><rect x="120" y="406" width="960" height="24" rx="12" fill="#475569"/><rect x="190" y="270" width="160" height="180" rx="18" fill="#D06A18"/><rect x="390" y="260" width="160" height="190" rx="18" fill="#F7941D"/><rect x="590" y="250" width="160" height="200" rx="18" fill="#D06A18"/><rect x="790" y="265" width="160" height="185" rx="18" fill="#F7941D"/><path d="M250 344L280 378L320 300" stroke="#F5EBDD" stroke-width="16" stroke-linecap="round" stroke-linejoin="round"/><path d="M450 340L480 374L520 296" stroke="#F5EBDD" stroke-width="16" stroke-linecap="round" stroke-linejoin="round"/><path d="M650 334L680 368L720 290" stroke="#F5EBDD" stroke-width="16" stroke-linecap="round" stroke-linejoin="round"/><path d="M850 340L880 374L920 296" stroke="#F5EBDD" stroke-width="16" stroke-linecap="round" stroke-linejoin="round"/><text x="140" y="150" fill="#F5EBDD" font-family="Arial, sans-serif" font-size="52" font-weight="700">Cellulose Insulation</text><text x="140" y="200" fill="#9AA4B1" font-family="Arial, sans-serif" font-size="28">Blown-in and dense-pack bag estimates by area and R-value.</text></svg>