<svg width="1200" height="700" viewBox="0 0 1200 700" fill="none" xmlns="http://www.w3.org/2000/svg" role="img" aria-label="Cellulose insulation bags and attic fill">
  <rect width="1200" height="700" fill="#ECFEFF"/>
  <rect x="120" y="420" width="960" height="150" rx="16" fill="#A7F3D0"/>
  <rect x="120" y="400" width="960" height="30" rx="12" fill="#6EE7B7"/>
  <rect x="180" y="270" width="180" height="180" rx="18" fill="#FDE68A"/>
  <rect x="390" y="260" width="180" height="190" rx="18" fill="#FCD34D"/>
  <rect x="600" y="250" width="180" height="200" rx="18" fill="#FDE68A"/>
  <rect x="810" y="265" width="180" height="185" rx="18" fill="#FCD34D"/>
  <path d="M255 345L285 380L325 300" stroke="#065F46" stroke-width="16" stroke-linecap="round" stroke-linejoin="round"/>
  <path d="M465 340L495 375L535 295" stroke="#065F46" stroke-width="16" stroke-linecap="round" stroke-linejoin="round"/>
  <path d="M675 335L705 370L745 290" stroke="#065F46" stroke-width="16" stroke-linecap="round" stroke-linejoin="round"/>
  <path d="M885 340L915 375L955 295" stroke="#065F46" stroke-width="16" stroke-linecap="round" stroke-linejoin="round"/>
  <text x="120" y="120" fill="#111827" font-family="Arial, sans-serif" font-size="52" font-weight="700">Cellulose Insulation</text>
  <text x="120" y="170" fill="#4B5563" font-family="Arial, sans-serif" font-size="28">Blown-in and dense-pack bag estimates by area and R-value.</text>
</svg>
