<svg
  width="1600"
  height="460"
  viewBox="0 0 1600 460"
  fill="none"
  xmlns="http://www.w3.org/2000/svg"
  role="img"
  aria-label="Planning and verification banner with hard hat, blueprint, and checklist"
>
  <defs>
    <linearGradient id="safety-bg" x1="800" y1="0" x2="800" y2="460" gradientUnits="userSpaceOnUse">
      <stop stop-color="#101826" />
      <stop offset="1" stop-color="#0B111D" />
    </linearGradient>
    <linearGradient id="panel-glow" x1="88" y1="64" x2="1512" y2="396" gradientUnits="userSpaceOnUse">
      <stop stop-color="#162235" />
      <stop offset="1" stop-color="#121B2B" />
    </linearGradient>
    <linearGradient id="orange-wash" x1="826" y1="86" x2="1098" y2="338" gradientUnits="userSpaceOnUse">
      <stop stop-color="#F7941D" stop-opacity="0.2" />
      <stop offset="1" stop-color="#F7941D" stop-opacity="0" />
    </linearGradient>
    <linearGradient id="sheet-fill" x1="1315" y1="78" x2="1315" y2="378" gradientUnits="userSpaceOnUse">
      <stop stop-color="#F7EFE2" />
      <stop offset="1" stop-color="#EEE1CC" />
    </linearGradient>
    <filter id="soft-shadow" x="-40" y="-40" width="1680" height="540" filterUnits="userSpaceOnUse" color-interpolation-filters="sRGB">
      <feDropShadow dx="0" dy="20" stdDeviation="24" flood-color="#02060E" flood-opacity="0.32" />
    </filter>
    <pattern id="grid" width="28" height="28" patternUnits="userSpaceOnUse">
      <path d="M28 0H0V28" stroke="#30425F" stroke-opacity="0.45" stroke-width="1" />
    </pattern>
  </defs>

  <rect width="1600" height="460" fill="url(#safety-bg)" />
  <path d="M0 40H1600" stroke="#283449" stroke-width="2" />
  <path d="M0 420H1600" stroke="#283449" stroke-width="2" />

  <g filter="url(#soft-shadow)">
    <rect x="52" y="52" width="1496" height="356" rx="34" fill="url(#panel-glow)" stroke="#2F3D54" stroke-width="3" />
  </g>

  <circle cx="1138" cy="194" r="180" fill="url(#orange-wash)" />
  <path d="M742 126H773" stroke="#F7941D" stroke-width="6" stroke-linecap="round" />
  <path d="M742 150H824" stroke="#F7941D" stroke-width="6" stroke-linecap="round" stroke-opacity="0.7" />

  <text x="110" y="112" fill="#F7941D" font-family="Arial, sans-serif" font-size="24" font-weight="700" letter-spacing="5">FIELD PROCESS</text>
  <text x="110" y="172" fill="#F5EBDD" font-family="Arial, sans-serif" font-size="58" font-weight="700">Planning &amp; Verification</text>
  <text x="110" y="216" fill="#9AA4B1" font-family="Arial, sans-serif" font-size="28">Use calculators to scope the order, then verify actual</text>
  <text x="110" y="252" fill="#9AA4B1" font-family="Arial, sans-serif" font-size="28">site conditions before the truck rolls or material gets cut.</text>

  <g>
    <rect x="110" y="288" width="430" height="42" rx="21" fill="#171F2F" stroke="#44526A" stroke-width="2" />
    <text x="136" y="316" fill="#F5EBDD" font-family="Arial, sans-serif" font-size="17" font-weight="700" letter-spacing="1.6">ESTIMATE SMART. VERIFY ON SITE.</text>
  </g>

  <g>
    <rect x="110" y="348" width="178" height="24" rx="12" fill="#223049" />
    <rect x="298" y="348" width="124" height="24" rx="12" fill="#223049" />
    <rect x="432" y="348" width="92" height="24" rx="12" fill="#223049" />
  </g>

  <g>
    <rect x="804" y="98" width="326" height="242" rx="28" fill="#101826" stroke="#34455F" stroke-width="3" />
    <rect x="824" y="118" width="286" height="202" rx="22" fill="url(#grid)" />
    <path d="M850 290H1080" stroke="#415470" stroke-width="2" stroke-dasharray="8 10" />
    <path d="M860 144H1088" stroke="#F7941D" stroke-width="5" stroke-linecap="round" />
    <path d="M860 176H1018" stroke="#F9A15A" stroke-width="4" stroke-linecap="round" />
    <path d="M860 208H1042" stroke="#F9A15A" stroke-width="4" stroke-linecap="round" />
    <rect x="860" y="228" width="116" height="54" rx="10" fill="#172236" stroke="#3C506F" stroke-width="2" />
    <path d="M1034 132V278" stroke="#516784" stroke-width="2" stroke-dasharray="10 10" />
    <path d="M1082 156L1082 276" stroke="#F7941D" stroke-width="4" stroke-linecap="round" />
    <path d="M1068 166H1096" stroke="#F7941D" stroke-width="4" stroke-linecap="round" />
    <path d="M1068 266H1096" stroke="#F7941D" stroke-width="4" stroke-linecap="round" />
    <path d="M860 304H1018" stroke="#516784" stroke-width="4" stroke-linecap="round" />
    <path d="M886 250L924 250L924 210" stroke="#F7941D" stroke-width="6" stroke-linecap="round" stroke-linejoin="round" />
  </g>

  <g>
    <path d="M872 334C842 334 818 310 818 280V260C818 194 872 140 938 140C1005 140 1058 194 1058 260V280C1058 310 1034 334 1004 334H872Z" fill="#F7941D" />
    <path d="M938 140C980 140 1018 162 1038 197C1010 184 974 178 938 178C902 178 867 184 839 197C859 162 897 140 938 140Z" fill="#F9A15A" fill-opacity="0.55" />
    <rect x="832" y="334" width="212" height="34" rx="12" fill="#D06A18" />
    <circle cx="938" cy="234" r="24" fill="#FFD19A" />
    <path d="M938 188V205" stroke="#C86412" stroke-width="6" stroke-linecap="round" />
    <path d="M904 214C912 201 924 194 938 194C952 194 964 201 972 214" stroke="#C86412" stroke-width="6" stroke-linecap="round" />
  </g>

  <path d="M1088 232C1134 208 1160 198 1196 194" stroke="#F7941D" stroke-width="6" stroke-linecap="round" stroke-dasharray="2 16" />

  <g filter="url(#soft-shadow)">
    <rect x="1180" y="78" width="270" height="300" rx="28" fill="url(#sheet-fill)" />
    <rect x="1272" y="64" width="86" height="28" rx="14" fill="#D06A18" />
    <rect x="1244" y="98" width="142" height="18" rx="9" fill="#E9D5B6" />
    <rect x="1216" y="138" width="198" height="14" rx="7" fill="#CAD0D8" />
    <rect x="1216" y="170" width="176" height="14" rx="7" fill="#CAD0D8" />
    <rect x="1216" y="202" width="190" height="14" rx="7" fill="#CAD0D8" />
    <rect x="1216" y="234" width="154" height="14" rx="7" fill="#CAD0D8" />
    <path d="M1226 286L1248 308L1282 270" stroke="#16A34A" stroke-width="12" stroke-linecap="round" stroke-linejoin="round" />
    <rect x="1296" y="266" width="96" height="24" rx="12" fill="#F9A15A" fill-opacity="0.24" />
    <text x="1308" y="283" fill="#C86412" font-family="Arial, sans-serif" font-size="15" font-weight="700" letter-spacing="1.2">VERIFIED</text>
    <path d="M1226 334H1402" stroke="#D5C4A9" stroke-width="2" />
    <path d="M1216 122H1414" stroke="#D8C7AB" stroke-width="2" />
  </g>

  <g>
    <rect x="1118" y="98" width="48" height="180" rx="22" fill="#202D43" stroke="#44526A" stroke-width="2" />
    <circle cx="1142" cy="132" r="10" fill="#F7941D" />
    <circle cx="1142" cy="190" r="10" fill="#F5EBDD" />
    <circle cx="1142" cy="248" r="10" fill="#F7941D" />
  </g>
</svg>
