<svg width="1200" height="700" viewBox="0 0 1200 700" fill="none" xmlns="http://www.w3.org/2000/svg" role="img" aria-label="Spray foam insulation application with nozzle and foam ribbons"><rect width="1200" height="700" fill="#0F1624"/><rect x="80" y="80" width="1040" height="540" rx="32" fill="#141E2E" stroke="#2B384F" stroke-width="4"/><rect x="120" y="430" width="960" height="130" rx="16" fill="#334155"/><rect x="120" y="408" width="960" height="24" rx="12" fill="#475569"/><rect x="320" y="300" width="320" height="90" rx="20" fill="#D06A18"/><rect x="640" y="280" width="220" height="60" rx="12" fill="#F7941D"/><rect x="600" y="320" width="40" height="110" rx="12" fill="#E7E5E4"/><rect x="360" y="340" width="80" height="150" rx="24" fill="#E7E5E4"/><path d="M900 320C860 310 880 340 860 360C840 380 860 420 820 430C780 440 760 400 720 400" stroke="#F9A15A" stroke-width="22" stroke-linecap="round"/><path d="M920 340C880 330 900 360 880 380C860 400 880 440 840 450C800 460 780 420 740 420" stroke="#F5EBDD" stroke-width="18" stroke-linecap="round"/><circle cx="640" cy="320" r="12" fill="#0F1624"/><circle cx="660" cy="320" r="8" fill="#F5EBDD"/><text x="140" y="150" fill="#F5EBDD" font-family="Arial, sans-serif" font-size="52" font-weight="700"> Spray Foam Insulation </text><text x="140" y="200" fill="#9AA4B1" font-family="Arial, sans-serif" font-size="28"> Closed-cell or open-cell depth and coverage planning. </text></svg>