<svg width="1200" height="700" viewBox="0 0 1200 700" fill="none" xmlns="http://www.w3.org/2000/svg" role="img" aria-label="Wall framing with studs and top plate">
  <rect width="1200" height="700" fill="#FFF7ED"/>
  <rect x="140" y="150" width="920" height="40" rx="10" fill="#A16207"/>
  <rect x="140" y="500" width="920" height="40" rx="10" fill="#A16207"/>
  <rect x="170" y="190" width="36" height="310" rx="8" fill="#CA8A04"/>
  <rect x="290" y="190" width="36" height="310" rx="8" fill="#CA8A04"/>
  <rect x="410" y="190" width="36" height="310" rx="8" fill="#CA8A04"/>
  <rect x="530" y="190" width="36" height="310" rx="8" fill="#CA8A04"/>
  <rect x="650" y="190" width="36" height="310" rx="8" fill="#CA8A04"/>
  <rect x="770" y="190" width="36" height="310" rx="8" fill="#CA8A04"/>
  <rect x="890" y="190" width="36" height="310" rx="8" fill="#CA8A04"/>
  <rect x="1010" y="190" width="36" height="310" rx="8" fill="#CA8A04"/>
  <circle cx="300" cy="320" r="30" fill="#1F2937"/>
  <rect x="315" y="245" width="18" height="145" rx="9" fill="#1F2937"/>
  <path d="M324 245L420 190" stroke="#1F2937" stroke-width="14" stroke-linecap="round"/>
  <text x="140" y="90" fill="#111827" font-family="Arial, sans-serif" font-size="52" font-weight="700">Wall Framing Layout</text>
  <text x="140" y="130" fill="#4B5563" font-family="Arial, sans-serif" font-size="28">Compare stud count at 16&quot; and 24&quot; on center spacing.</text>
</svg>
