<svg width="1200" height="700" viewBox="0 0 1200 700" fill="none" xmlns="http://www.w3.org/2000/svg" role="img" aria-label="Wall framing with studs and top plate"><rect width="1200" height="700" fill="#0F1624"/><rect x="80" y="80" width="1040" height="540" rx="32" fill="#141E2E" stroke="#2B384F" stroke-width="4"/><rect x="160" y="180" width="880" height="34" rx="10" fill="#D06A18"/><rect x="160" y="486" width="880" height="34" rx="10" fill="#D06A18"/><rect x="190" y="214" width="30" height="272" rx="8" fill="#F7941D"/><rect x="304" y="214" width="30" height="272" rx="8" fill="#F7941D"/><rect x="418" y="214" width="30" height="272" rx="8" fill="#F7941D"/><rect x="532" y="214" width="30" height="272" rx="8" fill="#F7941D"/><rect x="646" y="214" width="30" height="272" rx="8" fill="#F7941D"/><rect x="760" y="214" width="30" height="272" rx="8" fill="#F7941D"/><rect x="874" y="214" width="30" height="272" rx="8" fill="#F7941D"/><rect x="988" y="214" width="30" height="272" rx="8" fill="#F7941D"/><circle cx="320" cy="340" r="28" fill="#E7E5E4"/><rect x="333" y="270" width="16" height="135" rx="8" fill="#E7E5E4"/><path d="M341 270L430 220" stroke="#E7E5E4" stroke-width="14" stroke-linecap="round"/><text x="140" y="150" fill="#F5EBDD" font-family="Arial, sans-serif" font-size="52" font-weight="700">Wall Framing Layout</text><text x="140" y="198" fill="#9AA4B1" font-family="Arial, sans-serif" font-size="28">Compare stud count at 16&quot; and 24&quot; on center spacing.</text></svg>